<?xml version="1.0" encoding="UTF-8"?>
<svg version="1.1" xmlns="http://www.w3.org/2000/svg" width="1024" height="1024">
<path d="M0 0 C337.92 0 675.84 0 1024 0 C1024 337.92 1024 675.84 1024 1024 C686.08 1024 348.16 1024 0 1024 C0 686.08 0 348.16 0 0 Z " fill="#007FC6" transform="translate(0,0)"/>
<path d="M0 0 C6.64067569 3.12502386 11.87426987 8.48543169 17.1875 13.4296875 C20.71876988 16.65687581 24.40562441 19.6540132 28.125 22.66015625 C31.24024597 25.19552627 34.31248991 27.77643734 37.375 30.375 C38.18855957 31.06493042 38.18855957 31.06493042 39.01855469 31.76879883 C41.23534731 33.65006097 43.45064447 35.53308 45.66601562 37.41601562 C52.12763099 42.90573114 58.62098922 48.34514608 65.19921875 53.6953125 C68.26775787 56.22033075 71.29039812 58.79484769 74.3125 61.375 C78.74852495 65.15793253 83.26614365 68.80514187 87.875 72.375 C94.87072549 77.804198 101.52502746 83.58868944 108.18603516 89.41992188 C114.81300991 95.19243609 121.55001037 100.83850399 128.375 106.375 C132.85173079 110.01520299 137.21530167 113.76994048 141.5625 117.5625 C146.49653526 121.86450472 151.48114398 126.06502136 156.62109375 130.12109375 C165.02114961 136.75562062 173.19135403 143.66700027 181.34716797 150.59716797 C182.97028067 151.97477588 184.5959304 153.34931757 186.22265625 154.72265625 C191.27666211 158.99014205 196.31956481 163.26918878 201.33349609 167.58374023 C206.81831659 172.30241995 212.34090283 176.96085163 217.95703125 181.5234375 C221.8182348 184.66593179 225.65888811 187.83300304 229.5 191 C235.98886221 196.34707271 242.48796328 201.68116255 249 207 C252.11985187 209.54820199 255.23835605 212.0980259 258.35400391 214.65136719 C259.54083723 215.62378892 260.72805968 216.5957358 261.91552734 217.56738281 C270.05073972 224.22713813 278.14224664 230.92621357 286.09716797 237.80078125 C289.6585309 240.87259908 293.27419646 243.86192082 296.9375 246.8125 C300.67539096 249.84782115 304.17197578 252.97771403 307.5078125 256.44921875 C308.87348527 257.86851742 310.30899772 259.21974788 311.75 260.5625 C316.32088124 265.51428801 317.58171615 269.86699293 317.34375 276.48046875 C316.4613403 282.94813075 312.87540169 288.08290465 308.10595703 292.421875 C301.31985925 297.50712147 291.90586471 297.59636148 283.76861572 298.16500854 C280.00097554 298.43202624 276.2371597 298.7470541 272.47265625 299.0546875 C271.61988098 299.12362717 270.76710571 299.19256683 269.88848877 299.26359558 C258.21711695 300.21395427 246.55390122 301.25419004 234.89555645 302.35202694 C231.41572528 302.67943339 227.93557739 303.00032432 224.45370483 303.30532837 C220.5011113 303.65170946 216.55141652 304.02594957 212.6015625 304.40234375 C211.4040184 304.50342438 210.2064743 304.604505 208.97264099 304.70864868 C201.1334927 305.36925762 201.1334927 305.36925762 195 310 C193.31275964 313.37448072 193.34399333 316.37455338 194 320 C195.94317855 324.647524 198.40065072 328.99482945 200.875 333.375 C201.57164774 334.63686946 202.26678558 335.89957362 202.96044922 337.16308594 C204.95494468 340.78600853 206.97638006 344.3932689 209 348 C209.92319429 349.66333094 210.84527014 351.32728376 211.765625 352.9921875 C213.33529188 355.8282793 214.91332569 358.65948365 216.49609375 361.48828125 C219.4445114 366.77693872 222.31271463 372.10857705 225.1875 377.4375 C230.45278021 387.18897017 235.80406356 396.8899452 241.19750977 406.57104492 C244.49457498 412.4897305 247.78368456 418.4123858 251.05078125 424.34765625 C251.55597038 425.26511627 251.55597038 425.26511627 252.07136536 426.20111084 C253.42592219 428.66155446 254.78022556 431.12213253 256.1321106 433.58404541 C259.6168104 439.92957975 263.1281964 446.25514644 266.7578125 452.51953125 C267.34804199 453.54272461 267.93827148 454.56591797 268.54638672 455.62011719 C269.63483323 457.50001936 270.73198131 459.37492782 271.84033203 461.24316406 C278.26463603 472.35444797 281.32977328 482.19376236 279 495 C276.05601531 505.93048675 270.29834073 512.6748757 260.78125 518.5546875 C252.70234737 522.75299364 243.92239536 523.22682936 235 522 C230.54734775 520.57160492 226.87507163 518.59545296 223 516 C222.00613281 515.38511719 222.00613281 515.38511719 220.9921875 514.7578125 C214.68481462 510.20405899 211.55704864 502.70111675 208 496 C206.3536101 492.93070014 204.70407301 489.86310116 203.0546875 486.79541016 C201.84083208 484.53683773 200.62862021 482.27738129 199.41796875 480.01708984 C195.69119951 473.07598213 191.87639163 466.19776993 187.9375 459.375 C181.95176028 449.00250558 176.2603721 438.4807105 170.58496094 427.93603516 C168.11678714 423.36390668 165.61994775 418.80755497 163.125 414.25 C159.81759454 408.20602153 156.53773082 402.14842953 153.30078125 396.06640625 C144.66696571 379.8447132 144.66696571 379.8447132 135.6875 363.8125 C135.23753662 363.02270752 134.78757324 362.23291504 134.32397461 361.41918945 C132.30612633 357.58326063 132.30612633 357.58326063 129 355 C124.65674584 354.54604331 124.65674584 354.54604331 120.94091797 356.56005859 C115.9147623 362.66007563 111.43202487 368.99917349 107.125 375.625 C105.71620225 377.76696419 104.30734824 379.90889138 102.8984375 382.05078125 C102.22651367 383.07768066 101.55458984 384.10458008 100.86230469 385.16259766 C98.90437418 388.14569524 96.91977263 391.10941432 94.92529297 394.06811523 C90.82338894 400.15621334 86.89146935 406.33799043 83 412.5625 C79.13094485 418.74820406 75.11995866 424.754571 70.80004883 430.6328125 C66.61434046 436.39162234 62.89007883 442.43387407 59.19726562 448.51757812 C55.21227254 454.98573697 51.3093486 460.16576279 44 463 C40.2659797 463.54454463 38.38692078 463.17371953 34.9375 461.625 C28.37942535 455.76459287 26.71611629 448.78677104 25.57421875 440.35546875 C25.45022705 439.46232971 25.32623535 438.56919067 25.19848633 437.64898682 C23.29730897 423.36152085 22.06842013 408.98702523 20.72393799 394.63879395 C20.06186331 387.57630312 19.39307871 380.51445591 18.71875 373.453125 C18.64644606 372.69411015 18.57414211 371.93509529 18.49964714 371.15307999 C17.48224203 360.50975185 16.31927873 349.89436192 15.00184631 339.28335571 C13.94634533 330.74445016 13.13967532 322.19925976 12.4375 313.625 C11.58946412 303.43636746 10.6309632 293.26837455 9.54223633 283.10253906 C8.95754858 277.63427464 8.40324326 272.16308541 7.8515625 266.69140625 C7.65109317 264.70783985 7.45057151 262.72427873 7.25 260.74072266 C7.14816406 259.73358215 7.04632813 258.72644165 6.94140625 257.68878174 C5.3696097 242.15849801 3.76503924 226.63455469 2 211.125 C0.93017905 201.72041337 -0.08409956 192.31423054 -0.97265625 182.890625 C-4.94687751 140.84076233 -9.77041093 98.88732344 -14.53717422 56.92122173 C-14.93102866 53.45030783 -15.32312178 49.9791956 -15.71535873 46.5080986 C-16.0017372 43.98469274 -16.29165773 41.4617107 -16.5819397 38.93875122 C-16.76409779 37.33881526 -16.94617947 35.73887061 -17.12817383 34.13891602 C-17.21111285 33.42644935 -17.29405188 32.71398268 -17.3795042 31.97992611 C-19.57119897 12.58279272 -19.57119897 12.58279272 -15.2578125 5.5546875 C-11.22080918 0.5648511 -6.29075558 -1.48017778 0 0 Z " fill="#FEFEFE" transform="translate(217,173)"/>
<path d="M0 0 C0.8065654 -0.00807175 1.6131308 -0.01614349 2.44413757 -0.02445984 C4.15308482 -0.03830018 5.86205971 -0.04902257 7.57104492 -0.05688477 C10.17875905 -0.07408381 12.78520062 -0.11796669 15.39257812 -0.16210938 C17.0533761 -0.17223772 18.71418485 -0.18075338 20.375 -0.1875 C21.54087395 -0.21376213 21.54087395 -0.21376213 22.7303009 -0.24055481 C26.49840342 -0.22553462 28.65166982 0.08775949 31.85620117 2.13989258 C35.02216405 5.41167939 35.045459 7.44264846 35.203125 11.90234375 C35.2659668 13.58457031 35.2659668 13.58457031 35.33007812 15.30078125 C35.36939453 16.47640625 35.40871094 17.65203125 35.44921875 18.86328125 C35.49240234 20.04664063 35.53558594 21.23 35.58007812 22.44921875 C35.68639301 25.37878453 35.78842517 28.30843713 35.88671875 31.23828125 C36.92570313 31.61339844 37.9646875 31.98851562 39.03515625 32.375 C40.44412268 32.89162102 41.85297044 33.40856576 43.26171875 33.92578125 C43.94105469 34.17005859 44.62039063 34.41433594 45.3203125 34.66601562 C51.05804766 36.7841515 56.460338 39.42384718 61.88671875 42.23828125 C62.57447388 41.53481567 62.57447388 41.53481567 63.27612305 40.81713867 C65.3701438 38.68136962 67.47206708 36.5535466 69.57421875 34.42578125 C70.29544922 33.68779297 71.01667969 32.94980469 71.75976562 32.18945312 C72.46552734 31.47724609 73.17128906 30.76503906 73.8984375 30.03125 C74.54256592 29.37664795 75.18669434 28.7220459 75.8503418 28.04760742 C81.35185001 23.1595032 81.35185001 23.1595032 85.47436523 23.37109375 C88.06160637 24.30114946 89.47621866 25.25180521 91.484375 27.11328125 C92.51328857 28.06074219 92.51328857 28.06074219 93.56298828 29.02734375 C94.32981934 29.75695312 95.09665039 30.4865625 95.88671875 31.23828125 C97.21678955 32.48738281 97.21678955 32.48738281 98.57373047 33.76171875 C101.01615508 36.08079697 103.43372803 38.4196478 105.8347168 40.78125 C106.8341421 41.75888813 107.83979297 42.73019923 108.85131836 43.6953125 C110.33496951 45.11190463 111.79781346 46.54737137 113.2578125 47.98828125 C114.1233374 48.82875 114.9888623 49.66921875 115.88061523 50.53515625 C118.32533171 53.82929047 118.70510976 56.17703527 118.88671875 60.23828125 C117.875 62.25 117.875 62.25 116.19921875 63.92578125 C115.565 64.57933594 114.93078125 65.23289062 114.27734375 65.90625 C113.4884375 66.67582031 112.69953125 67.44539062 111.88671875 68.23828125 C110.83820444 69.29525132 109.79144593 70.35396495 108.74609375 71.4140625 C105.8141497 74.37732238 102.85621151 77.31267262 99.88671875 80.23828125 C100.42941406 81.36105469 100.97210937 82.48382812 101.53125 83.640625 C102.2541827 85.15221156 102.97682329 86.66393786 103.69921875 88.17578125 C104.05564453 88.91119141 104.41207031 89.64660156 104.77929688 90.40429688 C107.23864985 95.57119442 109.20018485 100.77099941 110.88671875 106.23828125 C111.9379895 106.2522998 111.9379895 106.2522998 113.01049805 106.26660156 C116.199109 106.32042669 119.38627208 106.40405061 122.57421875 106.48828125 C123.67701172 106.50246094 124.77980469 106.51664063 125.91601562 106.53125 C134.12051696 106.77912013 134.12051696 106.77912013 138.09375 109.16015625 C141.45736769 113.05872839 141.07970439 116.63296749 141.125 121.5703125 C141.13307175 122.39907394 141.14114349 123.22783539 141.14945984 124.08171082 C141.16330096 125.8377371 141.17402299 127.59379029 141.18188477 129.34985352 C141.19908526 132.02998134 141.24296801 134.70887153 141.28710938 137.38867188 C141.29723754 139.09504301 141.30575326 140.80142464 141.3125 142.5078125 C141.33000809 143.30693558 141.34751617 144.10605865 141.36555481 144.92939758 C141.35015556 148.89797801 141.17387476 150.78780503 138.98510742 154.22143555 C135.76760276 157.31390861 133.80889248 157.39378011 129.44140625 157.5546875 C127.82685547 157.6175293 127.82685547 157.6175293 126.1796875 157.68164062 C125.05175781 157.72095703 123.92382812 157.76027344 122.76171875 157.80078125 C121.62605469 157.84396484 120.49039063 157.88714844 119.3203125 157.93164062 C116.50924107 158.03794165 113.6980793 158.1399753 110.88671875 158.23828125 C110.66008545 158.81271973 110.43345215 159.3871582 110.19995117 159.97900391 C109.16082534 162.60820682 108.11755791 165.23574761 107.07421875 167.86328125 C106.71779297 168.76691406 106.36136719 169.67054688 105.99414062 170.6015625 C104.14042717 175.26135595 102.22382129 179.7999982 99.88671875 184.23828125 C100.33660156 184.61597656 100.78648437 184.99367188 101.25 185.3828125 C103.49310951 187.30226693 105.69446706 189.2608225 107.88671875 191.23828125 C108.36802246 191.67205078 108.84932617 192.10582031 109.34521484 192.55273438 C110.87720142 193.9505431 112.38367307 195.37194799 113.88671875 196.80078125 C114.83546875 197.68894531 115.78421875 198.57710937 116.76171875 199.4921875 C118.88671875 202.23828125 118.88671875 202.23828125 119.63671875 205.078125 C118.46705968 210.00653222 115.3753428 212.68458209 111.88671875 216.23828125 C111.02175781 217.15464355 110.15679688 218.07100586 109.265625 219.01513672 C106.84483585 221.57694527 104.38904111 224.10169747 101.91650391 226.61352539 C100.8903639 227.66144589 99.87054804 228.71559399 98.85693359 229.77563477 C97.37083741 231.32876033 95.86585092 232.86115092 94.35546875 234.390625 C93.03192383 235.75175415 93.03192383 235.75175415 91.68164062 237.14038086 C88.33265235 239.65416984 86.03385492 240.07221094 81.88671875 240.23828125 C79.83984375 239.19140625 79.83984375 239.19140625 78.13671875 237.48828125 C77.481875 236.85019531 76.82703125 236.21210937 76.15234375 235.5546875 C75.4046875 234.79027344 74.65703125 234.02585937 73.88671875 233.23828125 C72.90460024 232.28672799 71.92008512 231.33764409 70.93359375 230.390625 C69.91671424 229.4036346 68.90108265 228.41535684 67.88671875 227.42578125 C67.39333008 226.94592773 66.89994141 226.46607422 66.39160156 225.97167969 C65.18376581 224.76555354 64.030103 223.50567225 62.88671875 222.23828125 C62.88671875 221.57828125 62.88671875 220.91828125 62.88671875 220.23828125 C61.4695466 220.7995065 60.0530257 221.36237613 58.63671875 221.92578125 C57.72921875 222.28671875 56.82171875 222.64765625 55.88671875 223.01953125 C53.83631541 223.85250761 51.79486535 224.70777821 49.76171875 225.58203125 C48.73046875 226.02546875 47.69921875 226.46890625 46.63671875 226.92578125 C45.6828125 227.34214844 44.72890625 227.75851562 43.74609375 228.1875 C40.78957035 229.27398196 38.00228193 229.81887851 34.88671875 230.23828125 C34.91290283 230.96418457 34.93908691 231.69008789 34.96606445 232.43798828 C35.07038685 235.74619666 35.13515747 239.05405845 35.19921875 242.36328125 C35.26206055 244.07644531 35.26206055 244.07644531 35.32617188 245.82421875 C35.34228516 246.9328125 35.35839844 248.04140625 35.375 249.18359375 C35.41427612 250.70750732 35.41427612 250.70750732 35.4543457 252.26220703 C34.69863179 256.22442321 33.13935995 258.89774508 29.88671875 261.23828125 C26.99574964 262.06631757 24.25320245 262.03461808 21.26171875 261.96484375 C20.02494385 261.96633926 20.02494385 261.96633926 18.76318359 261.96786499 C17.02496672 261.96319701 15.28673468 261.94381806 13.54882812 261.91064453 C10.89459852 261.86342144 8.24438724 261.86952994 5.58984375 261.8828125 C3.89711157 261.87165819 2.20439624 261.8574379 0.51171875 261.83984375 C-0.67284912 261.84257797 -0.67284912 261.84257797 -1.88134766 261.84536743 C-5.75868444 261.74605212 -7.718264 261.48380625 -11.08984375 259.38818359 C-14.2343841 256.04710947 -14.26637094 253.10485955 -14.4296875 248.6953125 C-14.47158203 247.62216797 -14.51347656 246.54902344 -14.55664062 245.44335938 C-14.59595703 244.32380859 -14.63527344 243.20425781 -14.67578125 242.05078125 C-14.71896484 240.91962891 -14.76214844 239.78847656 -14.80664062 238.62304688 C-14.91277224 235.82824771 -15.0148251 233.03335963 -15.11328125 230.23828125 C-16.10328125 229.8515625 -17.09328125 229.46484375 -18.11328125 229.06640625 C-19.44686817 228.54100778 -20.78018418 228.01492137 -22.11328125 227.48828125 C-22.80010986 227.21822266 -23.48693848 226.94816406 -24.19458008 226.66992188 C-27.85851089 225.20972557 -31.3481376 223.65860877 -34.80078125 221.73828125 C-37.84403334 219.91567111 -37.84403334 219.91567111 -40.05078125 220.8515625 C-42.62419495 222.5817933 -44.40094605 224.57726014 -46.42578125 226.92578125 C-47.21339844 227.81523438 -48.00101563 228.7046875 -48.8125 229.62109375 C-50.21501124 231.21648004 -51.61430264 232.8147141 -53.0078125 234.41796875 C-55.77205476 237.42556416 -57.70688523 239.07572284 -61.55078125 240.61328125 C-70.22662102 239.70003496 -77.8364431 228.7972916 -83.91577148 222.78588867 C-85.01304859 221.70532387 -86.1156828 220.63017425 -87.22338867 219.56030273 C-88.84351886 217.99493081 -90.44657514 216.41373412 -92.046875 214.828125 C-92.54158798 214.35608139 -93.03630096 213.88403778 -93.54600525 213.39768982 C-96.74003919 210.18363148 -97.96993723 207.7829203 -98.11328125 203.23828125 C-96.59375 200.81640625 -96.59375 200.81640625 -94.30078125 198.48828125 C-93.07101562 197.21597656 -93.07101562 197.21597656 -91.81640625 195.91796875 C-90.924375 195.03367187 -90.03234375 194.149375 -89.11328125 193.23828125 C-88.16960359 192.28350918 -87.22689895 191.32777444 -86.28515625 190.37109375 C-83.9107431 187.97632848 -81.52036481 185.60013777 -79.11328125 183.23828125 C-80.36407379 179.30721897 -81.79457035 175.59454553 -83.55078125 171.86328125 C-85.6536148 167.39393597 -87.41159994 162.87201404 -89.11328125 158.23828125 C-89.78383545 158.22369873 -90.45438965 158.20911621 -91.14526367 158.1940918 C-94.19766947 158.11939825 -97.2490071 158.02280826 -100.30078125 157.92578125 C-101.88342773 157.89194336 -101.88342773 157.89194336 -103.49804688 157.85742188 C-104.51962891 157.82197266 -105.54121094 157.78652344 -106.59375 157.75 C-107.99983521 157.71072388 -107.99983521 157.71072388 -109.43432617 157.6706543 C-113.29525434 157.04751534 -116.00250174 155.68670413 -118.40478516 152.55419922 C-119.45400324 149.12453598 -119.43864353 145.73767965 -119.44921875 142.18359375 C-119.45587555 141.40442596 -119.46253235 140.62525818 -119.46939087 139.82247925 C-119.47949866 138.17676141 -119.48420847 136.53100275 -119.48388672 134.88525391 C-119.48825467 132.37853802 -119.52457642 129.87359147 -119.5625 127.3671875 C-119.56836981 125.7643289 -119.5723381 124.16146199 -119.57421875 122.55859375 C-119.5957753 121.44268356 -119.5957753 121.44268356 -119.61776733 120.30422974 C-119.57287874 115.14380517 -118.38314752 112.20431751 -115.11328125 108.23828125 C-112.54116803 106.95222464 -110.54421159 107.02784184 -107.66796875 106.921875 C-106.59160156 106.87998047 -105.51523437 106.83808594 -104.40625 106.79492188 C-103.27832031 106.75560547 -102.15039062 106.71628906 -100.98828125 106.67578125 C-99.85261719 106.63259766 -98.71695313 106.58941406 -97.546875 106.54492188 C-94.73580357 106.43862085 -91.9246418 106.3365872 -89.11328125 106.23828125 C-88.71496094 105.00851562 -88.31664062 103.77875 -87.90625 102.51171875 C-87.37133703 100.87882653 -86.83616717 99.24601846 -86.30078125 97.61328125 C-86.03974609 96.80503906 -85.77871094 95.99679687 -85.50976562 95.1640625 C-84.32060857 91.55254848 -83.13360015 88.27675651 -81.3515625 84.90234375 C-79.92622831 82.43108431 -79.92622831 82.43108431 -80.31323242 80.30175781 C-81.31856638 77.70881225 -82.64026719 76.44722018 -84.67578125 74.55859375 C-85.38992188 73.87667969 -86.1040625 73.19476562 -86.83984375 72.4921875 C-88.35157664 71.07656134 -89.86719316 69.66507074 -91.38671875 68.2578125 C-92.45792969 67.23107422 -92.45792969 67.23107422 -93.55078125 66.18359375 C-94.20949219 65.57016113 -94.86820313 64.95672852 -95.546875 64.32470703 C-97.6255509 61.55594702 -98.06509645 59.69374031 -98.11328125 56.23828125 C-96.62451172 53.8515625 -96.62451172 53.8515625 -94.35546875 51.55078125 C-93.52370117 50.69097656 -92.69193359 49.83117187 -91.83496094 48.9453125 C-90.93680664 48.05199219 -90.03865234 47.15867187 -89.11328125 46.23828125 C-88.23317383 45.33464844 -87.35306641 44.43101562 -86.44628906 43.5 C-83.73186121 40.72372443 -80.98961281 37.97795463 -78.23828125 35.23828125 C-77.29280228 34.28922831 -76.34748913 33.34001016 -75.40234375 32.390625 C-74.50515625 31.49472656 -73.60796875 30.59882812 -72.68359375 29.67578125 C-71.87680176 28.87011719 -71.07000977 28.06445312 -70.23876953 27.234375 C-65.97716456 23.23220612 -65.97716456 23.23220612 -62.3359375 23.2578125 C-58.04670983 24.56277752 -55.70509956 26.83090828 -52.55078125 29.92578125 C-51.99970703 30.44333984 -51.44863281 30.96089844 -50.88085938 31.49414062 C-47.33776687 34.86911486 -44.18103159 38.42787254 -41.11328125 42.23828125 C-38.26885624 41.60763838 -35.80302098 40.72276571 -33.1796875 39.4609375 C-32.44814453 39.11224609 -31.71660156 38.76355469 -30.96289062 38.40429688 C-30.20814453 38.04013672 -29.45339844 37.67597656 -28.67578125 37.30078125 C-27.17773399 36.58197574 -25.6790514 35.86449256 -24.1796875 35.1484375 C-23.18884155 34.67096069 -23.18884155 34.67096069 -22.17797852 34.18383789 C-19.85310548 33.11913016 -17.49356694 32.17160992 -15.11328125 31.23828125 C-15.10393555 30.50714111 -15.09458984 29.77600098 -15.08496094 29.02270508 C-15.03115461 25.69805407 -14.94752621 22.37479447 -14.86328125 19.05078125 C-14.84910156 17.90029297 -14.83492187 16.74980469 -14.8203125 15.56445312 C-14.78808594 14.45263672 -14.75585938 13.34082031 -14.72265625 12.1953125 C-14.70170898 11.1741333 -14.68076172 10.1529541 -14.65917969 9.10083008 C-13.98055407 5.54229458 -12.58903817 3.83655164 -10.11328125 1.23828125 C-6.93413408 -0.35129234 -3.49343743 0.03294403 0 0 Z " fill="#FEFEFE" transform="translate(664.11328125,589.76171875)"/>
<path d="M0 0 C0.90476739 -0.00367669 1.80953478 -0.00735338 2.74171937 -0.01114148 C5.75662129 -0.02210529 8.77148866 -0.02600971 11.78640747 -0.02983093 C13.95539965 -0.03610122 16.12439077 -0.04274852 18.29338074 -0.04974365 C25.40319072 -0.0707234 32.51300077 -0.08114201 39.62283325 -0.09111023 C42.07784155 -0.0951604 44.53284974 -0.09927739 46.98785782 -0.10346031 C58.52728978 -0.12250051 70.0667154 -0.13673265 81.60616004 -0.14507228 C94.89024592 -0.15483331 108.17412354 -0.18112822 121.45815647 -0.22157317 C131.74896119 -0.25182063 142.03971824 -0.26654942 152.33056653 -0.26985329 C158.46573196 -0.27219435 164.60071861 -0.28103109 170.73583603 -0.30631447 C176.51598795 -0.32975088 182.29584535 -0.33376627 188.07603264 -0.32355309 C190.1841639 -0.32306135 192.29231044 -0.32927341 194.40039635 -0.34310913 C209.9723399 -0.43949779 226.29603736 0.19306671 240.25564575 7.95967102 C240.90783081 8.30441467 241.56001587 8.64915833 242.23196411 9.00434875 C247.49349591 11.86075859 252.24559543 15.12673409 256.69314575 19.14717102 C257.27966919 19.65377258 257.86619263 20.16037415 258.4704895 20.68232727 C270.96743845 32.21579262 280.50879422 50.36986262 281.87918162 67.46836483 C281.95427236 69.9447423 281.96947636 72.41395157 281.96057129 74.89144897 C281.9651024 75.83115034 281.96963351 76.77085171 281.97430193 77.73902887 C281.98689201 80.86609403 281.98532904 83.99298382 281.9836731 87.12007141 C281.98966183 89.37127403 281.99646817 91.6224746 282.00402832 93.87367249 C282.02166335 99.97526994 282.02638274 106.07681127 282.02765989 112.17843175 C282.02908381 115.99632487 282.03335805 119.81420383 282.03865433 123.63209343 C282.05619501 136.28084919 282.06549559 148.92956416 282.06399338 161.5783288 C282.06391347 162.25903257 282.06383355 162.93973634 282.06375122 163.6410675 C282.06366946 164.32261304 282.0635877 165.00415857 282.06350346 165.70635699 C282.06269161 176.73662852 282.08180701 187.76676314 282.11002795 198.79699511 C282.13884729 210.15173599 282.15219807 221.50638959 282.1508404 232.86117548 C282.1503322 239.22428581 282.15593639 245.58724123 282.1771965 251.95031929 C282.19666765 257.94142794 282.19664278 263.93223536 282.18216324 269.9233551 C282.18008482 272.11133709 282.1847177 274.29933837 282.19688416 276.48728752 C282.31944368 300.07208243 277.94700455 318.09959266 261.69314575 336.14717102 C261.00607544 336.9283429 260.31900513 337.70951477 259.6111145 338.51435852 C244.70125181 354.50304245 223.18116007 362.27097419 201.58707142 363.24186182 C199.32101457 363.28068119 197.05682409 363.29009663 194.79043579 363.28761292 C193.49854662 363.2920696 193.49854662 363.2920696 192.18055868 363.29661632 C189.31299954 363.30524348 186.44548244 363.30680648 183.57791138 363.30830383 C181.51404736 363.31293632 179.4501842 363.31796156 177.38632202 363.323349 C171.79085889 363.33643529 166.19540775 363.34291083 160.59993172 363.34735966 C157.0981391 363.35029707 153.5963497 363.35440318 150.09455872 363.35886383 C139.12110107 363.37253014 128.14765084 363.38220048 117.17418528 363.38606572 C104.53930512 363.39054151 91.90453342 363.40807085 79.26968622 363.43706632 C69.48251709 363.45874101 59.69537834 363.46877312 49.90818548 363.47010684 C44.07269456 363.47115092 38.2373057 363.47697355 32.40184021 363.49492645 C26.90571553 363.51150697 21.40976853 363.51351455 15.91362762 363.50478745 C13.9078651 363.50402233 11.90209263 363.50828952 9.89635468 363.5182457 C-15.82693941 363.63833851 -38.52248542 358.47561272 -57.54904175 339.97529602 C-65.31995952 332.00625287 -77.30685425 319.0325635 -77.30685425 307.14717102 C-73.30978042 306.80699452 -69.31325324 306.52715835 -65.30880737 306.28926086 C-63.38208542 306.1525106 -61.46100836 305.94228979 -59.54122925 305.72920227 C-50.61604086 305.06271093 -50.61604086 305.06271093 -46.8263855 308.20185852 C-44.80037453 310.76383111 -43.03806732 313.37978854 -41.30685425 316.14717102 C-33.09528854 325.41150156 -20.61484104 332.24063584 -8.18040526 333.33418143 C-5.88750169 333.40567399 -3.60202511 333.41869795 -1.30802917 333.40786743 C-0.43648593 333.41169298 0.43505732 333.41551853 1.33301097 333.41946 C4.23526355 333.42972727 7.13731596 333.42580977 10.0395813 333.42182922 C12.128018 333.42617927 14.21645311 333.43136339 16.30488586 333.43731689 C21.96627951 333.4506892 27.62760631 333.45128733 33.28901267 333.4487536 C38.02274447 333.44768231 42.75646284 333.45257148 47.49019176 333.45735902 C58.6645428 333.4684489 69.83886023 333.46889505 81.01321411 333.46284485 C92.52046838 333.45680989 104.02760023 333.46910519 115.53483361 333.49041492 C125.4306655 333.50806317 135.32645855 333.51402704 145.2223056 333.51077718 C151.1253208 333.50896873 157.02824874 333.51155636 162.93124962 333.52549171 C168.48729195 333.53811727 174.04314443 333.53608131 179.59918404 333.52308083 C181.63039084 333.52072547 183.66161119 333.52341209 185.69280243 333.53170395 C205.04280439 333.60495589 223.08213064 331.34929578 237.69314575 317.14717102 C251.88891367 300.6625927 254.15260451 282.80443981 254.08132935 261.89155579 C254.08540173 259.8729677 254.09074733 257.85438186 254.09725952 255.83580017 C254.11086048 250.38740035 254.10566419 244.9391722 254.09612226 239.49076962 C254.08848704 233.76782879 254.09558205 228.04490191 254.10028076 222.32196045 C254.10572755 212.71313357 254.09857547 203.10437603 254.08425903 193.49555969 C254.0679393 182.41480815 254.07322053 171.33422229 254.08973825 160.25347477 C254.10338942 150.71080795 254.10525493 141.16819075 254.09742224 131.62551731 C254.09276505 125.93885043 254.09206669 120.25226121 254.10203171 114.56559944 C254.11075192 109.21630927 254.10458779 103.86723091 254.08734894 98.51796341 C254.08341075 96.56457939 254.08447187 94.61117729 254.09113693 92.65780067 C254.14706869 74.58768461 252.68811721 55.54656412 239.4704895 41.66279602 C228.49326846 32.30200093 216.07037208 28.00179203 201.84075928 27.99327087 C200.94868912 27.98888862 200.05661896 27.98450637 199.13751638 27.97999132 C196.14775654 27.96663514 193.15802617 27.96043152 190.16824341 27.95429993 C188.0243822 27.94639624 185.88052232 27.93812713 183.73666382 27.92951965 C176.69352484 27.90332302 169.65038001 27.88799099 162.60720825 27.87373352 C160.17907075 27.86837224 157.75093329 27.86299472 155.32279587 27.85760117 C145.21732154 27.83597292 135.1118488 27.81723889 125.00635719 27.80597878 C110.54549999 27.78975776 96.08491224 27.7566239 81.62415659 27.69957793 C71.44556163 27.66080069 61.2670385 27.64133667 51.08837163 27.63605821 C45.01524958 27.63241451 38.94241508 27.62049784 32.86937332 27.58795547 C27.14832056 27.55773924 21.42772731 27.55161137 15.70661163 27.56333923 C13.61656602 27.56355886 11.52649825 27.5553469 9.43652725 27.53768539 C-8.69375196 27.39292063 -24.68326928 30.03230448 -38.55685425 42.83467102 C-52.32452628 57.54800133 -51.76367706 76.29589709 -51.818573 95.17060852 C-51.83544899 97.37021365 -51.85360308 99.56980931 -51.87297058 101.76939392 C-51.92015965 107.51327045 -51.95016923 113.25710857 -51.97640991 119.00111389 C-52.00637352 124.88060591 -52.05284898 130.75996593 -52.09786987 136.63935852 C-52.18354862 148.14189319 -52.25105024 159.64445529 -52.30685425 171.14717102 C-56.25790321 168.54185553 -59.98413604 165.86671228 -63.61935425 162.83467102 C-67.35447505 159.61139855 -67.35447505 159.61139855 -71.53997803 157.06181335 C-74.54576958 155.37668747 -76.2572944 153.94398795 -78.30685425 151.14717102 C-80.05835573 144.84626395 -79.44900314 137.95776232 -79.3263855 131.48701477 C-79.31974139 129.5351648 -79.3165171 127.58330049 -79.31654358 125.63143921 C-79.30726008 121.54128706 -79.26808741 117.45291393 -79.20553589 113.36323547 C-79.1266496 108.15734781 -79.10388745 102.95322884 -79.10168934 97.74680233 C-79.09667819 93.71339131 -79.07027317 89.68034835 -79.03680992 85.64708138 C-79.02170819 83.73004153 -79.01095064 81.81296178 -79.00486183 79.89587212 C-78.88380783 55.8724296 -71.84064995 37.59801311 -55.2638855 19.97529602 C-40.67700083 5.85365908 -19.82868582 -0.0043933 0 0 Z " fill="#FEFEFE" transform="translate(551.3068542480469,196.8528289794922)"/>
<path d="M0 0 C0.93714844 -0.01160156 1.87429688 -0.02320313 2.83984375 -0.03515625 C11.67087282 0.0024226 11.67087282 0.0024226 15.5 3.375 C17.9766349 7.00189743 19.19639574 10.32255334 20.22998047 14.57617188 C20.53394745 15.80936157 20.83791443 17.04255127 21.15109253 18.31311035 C21.47330921 19.65661254 21.79533565 21.00016037 22.1171875 22.34375 C22.4589328 23.74378584 22.80140462 25.14364451 23.14456177 26.54333496 C24.04766637 30.23570825 24.94062509 33.93046364 25.83154297 37.62579346 C26.72125626 41.30805137 27.6208705 44.98788635 28.51953125 48.66796875 C30.0648685 55.00233811 31.59914784 61.33930568 33.12560368 67.67825031 C34.10140647 71.72904345 35.08577098 75.77764497 36.07592773 79.82495117 C36.52603978 81.67883465 36.97600443 83.53275392 37.42578125 85.38671875 C37.62207123 86.18158691 37.81836121 86.97645508 38.02059937 87.79541016 C39.81634565 95.24840805 40.77713716 102.7471787 41.5 110.375 C42.16 110.375 42.82 110.375 43.5 110.375 C43.57839111 109.65948975 43.65678223 108.94397949 43.73754883 108.20678711 C45.32055549 95.59686178 48.33103412 83.30702515 51.1875 70.9375 C52.00541077 67.37343117 52.82193808 63.80904705 53.63845825 60.24465942 C54.1766731 57.89624209 54.71562755 55.54799413 55.25534058 53.19992065 C56.7746441 46.58210166 58.26381488 39.95902911 59.70703125 33.32421875 C60.02049718 31.89312763 60.33405075 30.4620557 60.64770508 29.03100586 C61.19524067 26.52168993 61.73602276 24.01088557 62.26831055 21.49829102 C65.86894593 5.12903604 65.86894593 5.12903604 71.5 1.375 C74.77707868 0.94581333 78.07280549 1.05075678 81.375 1.0625 C82.72271484 1.03833008 82.72271484 1.03833008 84.09765625 1.01367188 C87.89854084 1.01086472 91.00227684 1.21302276 94.6328125 2.39453125 C97.01983694 4.92637516 96.79660194 6.65057825 96.71130371 10.02323914 C96.31839922 14.39617414 95.20166981 18.5706551 94.10546875 22.8125 C93.84622116 23.84992844 93.58697357 24.88735687 93.31987 25.95622253 C92.45045635 29.4312208 91.56882509 32.90300536 90.6875 36.375 C89.40639381 41.47367967 88.13348189 46.57437717 86.86328125 51.67578125 C86.60911942 52.69452552 86.60911942 52.69452552 86.349823 53.73385048 C83.51046521 65.12574479 80.79243411 76.54387431 78.12343025 87.97680283 C77.48243498 90.72204782 76.83987876 93.4669231 76.19688416 96.21170044 C73.64831957 107.09255502 73.64831957 107.09255502 71.12484741 117.97924805 C70.13339561 122.28019911 69.1306736 126.57837468 68.11997414 130.87484169 C67.74729554 132.46904919 67.37897518 134.06428269 67.01532555 135.66057396 C66.51350299 137.8614008 65.99658534 140.05816852 65.47607422 142.25463867 C65.18965057 143.49058273 64.90322693 144.72652679 64.60812378 145.99992371 C63.40470539 149.66524426 61.83756584 152.31802275 59.5 155.375 C55.0615003 157.59424985 49.06134797 156.64975724 44.1875 156.6875 C42.95064453 156.71650391 41.71378906 156.74550781 40.43945312 156.77539062 C38.64991211 156.78795898 38.64991211 156.78795898 36.82421875 156.80078125 C35.73197998 156.81536377 34.63974121 156.82994629 33.5144043 156.8449707 C29.70369275 156.25084908 28.15099116 155.15530074 25.5 152.375 C24.24438477 149.58007812 24.24438477 149.58007812 23.37890625 146.40625 C23.05680176 145.24738281 22.73469727 144.08851563 22.40283203 142.89453125 C22.10489746 141.73308594 21.80696289 140.57164062 21.5 139.375 C21.23944824 138.36824219 20.97889648 137.36148438 20.71044922 136.32421875 C19.92406154 133.18072798 19.17661199 130.02993251 18.4375 126.875 C17.83953703 124.35652867 17.24065756 121.83829019 16.640625 119.3203125 C16.39780037 118.29884628 16.39780037 118.29884628 16.15007019 117.25674438 C14.68728735 111.11947572 13.18223212 104.99289939 11.671875 98.8671875 C11.17455707 96.84700607 10.67724263 94.82682377 10.17993164 92.80664062 C9.4391781 89.79832414 8.69747186 86.79026011 7.9526062 83.78295898 C1.08538912 56.04530136 1.08538912 56.04530136 1.5 48.375 C0.84 48.375 0.18 48.375 -0.5 48.375 C-0.61480713 49.01402252 -0.72961426 49.65304504 -0.84790039 50.31143188 C-4.05492792 67.98122137 -8.05686178 85.35402441 -12.5 102.75 C-13.11005662 105.15998381 -13.71943306 107.5701399 -14.328125 109.98046875 C-15.21728083 113.50135527 -16.10854214 117.02160336 -17.00854492 120.53973389 C-18.35576028 125.80857379 -19.67730935 131.07909702 -20.91015625 136.37597656 C-21.12784668 137.29609528 -21.34553711 138.21621399 -21.56982422 139.16421509 C-21.96665929 140.85058767 -22.35328802 142.5394127 -22.72705078 144.23104858 C-23.81943841 148.83185856 -25.10291796 151.90002628 -28.5 155.375 C-32.95268601 157.60134301 -38.98548636 156.64977227 -43.875 156.6875 C-45.12023437 156.71650391 -46.36546875 156.74550781 -47.6484375 156.77539062 C-48.8446875 156.78376953 -50.0409375 156.79214844 -51.2734375 156.80078125 C-52.37091309 156.81536377 -53.46838867 156.82994629 -54.59912109 156.8449707 C-58.24335239 156.25456966 -59.14651523 155.16028888 -61.5 152.375 C-62.46476746 150.09455872 -62.46476746 150.09455872 -63.12963867 147.53833008 C-63.38957108 146.56119553 -63.64950348 145.58406097 -63.91731262 144.57731628 C-64.18565414 143.50637222 -64.45399567 142.43542816 -64.73046875 141.33203125 C-65.026082 140.19256546 -65.32169525 139.05309967 -65.62626648 137.87910461 C-69.40934426 123.1215123 -72.84201961 108.27590662 -76.26578522 93.43171692 C-76.81929423 91.03305684 -77.37413977 88.63470955 -77.92938232 86.2364502 C-79.95817193 77.47221132 -81.97947966 68.70628129 -83.99241257 59.93838692 C-85.08252962 55.19014482 -86.17612149 50.44272288 -87.27197266 45.69580078 C-88.5176224 40.29483393 -89.75256875 34.89156463 -90.97592163 29.48550415 C-91.40513443 27.59395291 -91.8375568 25.7031268 -92.27334595 23.81307983 C-92.86134205 21.25769691 -93.43651231 18.69978401 -94.0078125 16.140625 C-94.17771194 15.41396133 -94.34761139 14.68729767 -94.5226593 13.93861389 C-95.34961036 10.15840055 -95.94350769 7.03768136 -94.5 3.375 C-90.29881441 0.30080559 -85.04500637 0.96806752 -80.0625 0.9375 C-78.65000977 0.88819336 -78.65000977 0.88819336 -77.20898438 0.83789062 C-75.8390332 0.82725586 -75.8390332 0.82725586 -74.44140625 0.81640625 C-73.19919312 0.79622437 -73.19919312 0.79622437 -71.93188477 0.77563477 C-68.20300875 1.69465802 -66.83381747 3.35192163 -64.5 6.375 C-63.32386433 9.36215061 -62.67683516 12.3989534 -62.03515625 15.5390625 C-61.73709579 16.88408089 -61.73709579 16.88408089 -61.43301392 18.25627136 C-60.79209904 21.16735837 -60.17720739 24.08327768 -59.5625 27 C-59.12454607 29.01169217 -58.68484019 31.02300371 -58.2434082 33.03393555 C-57.37382779 37.00713593 -56.51381294 40.98219337 -55.66308594 44.95947266 C-54.44869969 50.63150288 -53.18748665 56.29193335 -51.91479492 61.95117188 C-49.24230887 73.84324139 -46.66387515 85.75649594 -44.09082031 97.67041016 C-43.23800341 101.57433809 -42.36862136 105.4745624 -41.5 109.375 C-41.36373703 108.65440903 -41.22747406 107.93381805 -41.08708191 107.19139099 C-37.29553289 87.31056402 -32.8321729 67.6551224 -27.94897461 48.01635742 C-26.98552202 44.14137686 -26.03377488 40.26362341 -25.08509541 36.38500309 C-24.34053623 33.34608017 -23.5902019 30.30860629 -22.83809471 27.2715435 C-22.48435123 25.84035205 -22.13231734 24.40873678 -21.78212929 22.97667122 C-17.42362858 5.18765001 -17.42362858 5.18765001 -13.46875 1.4609375 C-8.9903169 -0.17722619 -4.73001062 -0.05855584 0 0 Z " fill="#FDFEFE" transform="translate(652.5,290.625)"/>
<path d="M0 0 C12.93798399 9.1927781 20.92617816 21.08744623 24.375 36.6875 C25.44107854 54.00690709 22.55343645 68.78135786 11.05078125 82.44921875 C0.6838169 93.33697252 -11.60414426 99.54563316 -26.703125 100.03100586 C-43.49802183 100.26129303 -55.93536818 95.00345193 -68.3125 83.5 C-79.05193189 72.26723732 -84.2895283 58.04050843 -84.10009766 42.59448242 C-83.37539105 26.12442375 -75.19785055 13.60254165 -63.46484375 2.67578125 C-45.5223989 -12.33595573 -19.2542524 -12.34246949 0 0 Z " fill="#007EC6" transform="translate(704.625,675.3125)"/>
<path d="M0 0 C0.72832031 0.0825 1.45664062 0.165 2.20703125 0.25 C11.7212724 1.84959221 19.24718905 7.24482033 25.3046875 14.58984375 C30.80015173 22.40251986 31.5807841 29.61065701 31 39 C32.85625 39.185625 32.85625 39.185625 34.75 39.375 C37.10855096 39.6108551 38.73669135 39.85420857 40.82136917 41.00847435 C43.38209245 42.17389567 45.19150259 42.26070571 47.99871826 42.2784729 C49.00550125 42.28963638 50.01228424 42.30079987 51.04957581 42.31230164 C52.69711098 42.31554192 52.69711098 42.31554192 54.37792969 42.31884766 C56.11981819 42.33391609 56.11981819 42.33391609 57.89689636 42.34928894 C61.73855083 42.3802009 65.58013536 42.39717859 69.421875 42.4140625 C72.08417791 42.4327677 74.74646396 42.45224384 77.40875244 42.4727478 C83.70200264 42.51952249 89.99526985 42.55627289 96.28860497 42.58942068 C103.45427618 42.62765135 110.61985668 42.67705902 117.78545141 42.72740483 C132.52356415 42.83070515 147.26174209 42.91997173 162 43 C162.17128418 43.60996826 162.34256836 44.21993652 162.51904297 44.84838867 C163.30154704 47.62889351 164.08823266 50.40819863 164.875 53.1875 C165.14441406 54.14720703 165.41382813 55.10691406 165.69140625 56.09570312 C165.95566406 57.02705078 166.21992187 57.95839844 166.4921875 58.91796875 C166.73308105 59.77156982 166.97397461 60.6251709 167.22216797 61.50463867 C167.96764306 64.04334752 167.96764306 64.04334752 169.09423828 66.56762695 C170 69 170 69 170 73 C151.56249123 73.16388666 133.1251728 73.28713891 114.68709183 73.3626852 C106.12496773 73.39870299 97.56329751 73.44776392 89.00146484 73.52807617 C81.53456481 73.59808398 74.06799366 73.64306342 66.60077453 73.65861946 C62.65069444 73.66770585 58.70155478 73.6888944 54.75177765 73.7401104 C51.02507189 73.78803705 47.29968329 73.80219962 43.57269859 73.79175377 C41.57096313 73.79456307 39.56936738 73.83201722 37.56800842 73.87094116 C29.37640088 73.8063157 24.26706401 72.14454658 17.48182297 67.50941563 C14.94999519 65.6832535 14.94999519 65.6832535 11.25 65.9375 C10.1775 66.288125 9.105 66.63875 8 67 C-2.21134364 69.86999068 -10.81813466 69.76695878 -20.390625 64.74609375 C-28.89528057 59.43791587 -35.23031173 52.55569035 -37.55078125 42.6484375 C-39.4039498 31.72280028 -37.5434056 22.82901135 -31.25 13.75 C-23.57054394 4.25122143 -12.33348765 -1.41713323 0 0 Z " fill="#FDFEFE" transform="translate(350,690)"/>
<path d="M0 0 C2.4375 0.75 2.4375 0.75 4.4375 2.75 C4.0625 6.375 4.0625 6.375 3.4375 9.75 C-2.94957103 11.07561852 -2.94957103 11.07561852 -5.5625 9.6875 C-7.07889353 6.74948754 -6.48543717 4.84843192 -5.5625 1.75 C-2.5625 -0.25 -2.5625 -0.25 0 0 Z " fill="#0C7AC3" transform="translate(347.5625,719.25)"/>
<path d="M0 0 C0.66 0 1.32 0 2 0 C2.22162329 1.62324086 2.42689803 3.248721 2.625 4.875 C2.74101563 5.77992188 2.85703125 6.68484375 2.9765625 7.6171875 C2.98429688 8.40351563 2.99203125 9.18984375 3 10 C2.34 10.66 1.68 11.32 1 12 C0.01 13.485 0.01 13.485 -1 15 C-1.66 15 -2.32 15 -3 15 C-2.69163768 12.87439563 -2.37818386 10.74952935 -2.0625 8.625 C-1.88847656 7.44164062 -1.71445312 6.25828125 -1.53515625 5.0390625 C-1 2 -1 2 0 0 Z " fill="#0D7AC2" transform="translate(652,339)"/>
<path d="M0 0 C1.34313399 0.64669414 2.67391178 1.31903578 4 2 C4.845625 2.4125 5.69125 2.825 6.5625 3.25 C9.62128905 5.44605368 10.66500907 7.51419035 12 11 C11.67 11.66 11.34 12.32 11 13 C10.37351562 12.28972656 9.74703125 11.57945312 9.1015625 10.84765625 C8.28429687 9.92855469 7.46703125 9.00945313 6.625 8.0625 C5.81289063 7.14597656 5.00078125 6.22945312 4.1640625 5.28515625 C2.21290653 2.96398605 2.21290653 2.96398605 0 2 C0 1.34 0 0.68 0 0 Z " fill="#1377C2" transform="translate(366,695)"/>
<path d="M0 0 C0.66 0.66 1.32 1.32 2 2 C-2.33333333 2 -6.66666667 2 -11 2 C-6.87116956 -0.75255363 -4.72757559 -1.33341876 0 0 Z " fill="#1076C3" transform="translate(366,756)"/>
<path d="M0 0 C0 4.38968456 -2.12805101 5.76905739 -5 9 C-5.99 8.67 -6.98 8.34 -8 8 C-5.36 5.36 -2.72 2.72 0 0 Z " fill="#197FC7" transform="translate(763,818)"/>
<path d="M0 0 C0.66 0.66 1.32 1.32 2 2 C0.35 3.65 -1.3 5.3 -3 7 C-3.99 6.67 -4.98 6.34 -6 6 C-4.02 4.02 -2.04 2.04 0 0 Z " fill="#0E79C4" transform="translate(770,811)"/>
<path d="M0 0 C0.66 0.66 1.32 1.32 2 2 C-0.97 4.475 -0.97 4.475 -4 7 C-4.66 6.34 -5.32 5.68 -6 5 C-4.02 3.35 -2.04 1.7 0 0 Z " fill="#0676C2" transform="translate(802,542)"/>
<path d="M0 0 C0.66 0 1.32 0 2 0 C2 1.32 2 2.64 2 4 C1.34 4 0.68 4 0 4 C0 5.65 0 7.3 0 9 C-0.66 9 -1.32 9 -2 9 C-1.34 6.03 -0.68 3.06 0 0 Z " fill="#1F79C3" transform="translate(652,339)"/>
<path d="M0 0 C0.99 0.33 1.98 0.66 3 1 C2.67 3.31 2.34 5.62 2 8 C1.34 7.67 0.68 7.34 0 7 C-1.26229508 2.52459016 -1.26229508 2.52459016 0 0 Z " fill="#0D72C0" transform="translate(610,393)"/>
</svg>
